PathFileType	4	(X/Y/Z)	E:/New_biomech_experiments/MICROGRAVITY MOCAP/Session 2024-06-22/Neeraj_Tpose_22_06_24.trc	
DataRate	CameraRate	NumFrames	NumMarkers	Units	OrigDataRate	OrigDataStartFrame	OrigNumFrames	
120.00	120.00	18	19	m	120.00	1	1560	
Frame#	Time	MarkerSet_RSHO			MarkerSet_RBAK			MarkerSet_LBHD			MarkerSet_RUPA			MarkerSet_PRSHO			MarkerSet_RWRB			MarkerSet_RELB			MarkerSet_RFRM			MarkerSet_CLAV			MarkerSet_RWRA			MarkerSet_STRN			MarkerSet_ARSHO			MarkerSet_RFHD			MarkerSet_LFHD			MarkerSet_DIA			MarkerSet_C7			MarkerSet_MRELB			MarkerSet_T10			MarkerSet_RBHD			
		X1	Y1	Z1	X2	Y2	Z2	X3	Y3	Z3	X4	Y4	Z4	X5	Y5	Z5	X6	Y6	Z6	X7	Y7	Z7	X8	Y8	Z8	X9	Y9	Z9	X10	Y10	Z10	X11	Y11	Z11	X12	Y12	Z12	X13	Y13	Z13	X14	Y14	Z14	X15	Y15	Z15	X16	Y16	Z16	X17	Y17	Z17	X18	Y18	Z18	X19	Y19	Z19	

1	0.000	-0.05272	1.57693	0.08774	-0.11434	1.37039	0.01689	-0.04741	1.71722	-0.11919	-0.03160	1.54942	0.26715	-0.10978	1.48131	0.08147	-0.06342	1.51794	0.69630	-0.03759	1.55196	0.40378	-0.02788	1.55253	0.54123	0.10005	1.48889	-0.07113	0.03607	1.51134	0.68971	0.13464	1.32627	-0.05314	0.06117	1.51931	0.08477	0.06167	1.81286	0.01871	0.07225	1.82584	-0.08372	0.07507	1.17682	0.11014	-0.10277	1.53010	-0.06955	0.02119	1.44642	0.40971	-0.11401	1.33610	-0.05176	-0.06566	1.71797	-0.01589 
2	0.008	-0.05273	1.57693	0.08775	-0.11435	1.37038	0.01691	-0.04745	1.71721	-0.11918	-0.03162	1.54950	0.26711	-0.10979	1.48131	0.08149	-0.06341	1.51803	0.69630	-0.03759	1.55199	0.40378	-0.02786	1.55258	0.54121	0.10002	1.48889	-0.07113	0.03609	1.51143	0.68972	0.13461	1.32627	-0.05314	0.06114	1.51930	0.08477	0.06159	1.81287	0.01875	0.07215	1.82593	-0.08372	0.07505	1.17682	0.11014	-0.10281	1.53012	-0.06955	0.02119	1.44646	0.40972	-0.11402	1.33609	-0.05172	-0.06572	1.71793	-0.01589 
3	0.017	-0.05275	1.57693	0.08776	-0.11436	1.37038	0.01693	-0.04749	1.71719	-0.11917	-0.03163	1.54957	0.26708	-0.10981	1.48130	0.08151	-0.06339	1.51811	0.69631	-0.03758	1.55202	0.40377	-0.02785	1.55262	0.54119	0.09998	1.48889	-0.07112	0.03611	1.51152	0.68973	0.13458	1.32627	-0.05313	0.06111	1.51930	0.08477	0.06152	1.81287	0.01878	0.07206	1.82600	-0.08372	0.07504	1.17681	0.11014	-0.10283	1.53011	-0.06954	0.02119	1.44649	0.40974	-0.11403	1.33607	-0.05169	-0.06578	1.71789	-0.01589 
4	0.025	-0.05276	1.57694	0.08777	-0.11437	1.37038	0.01695	-0.04752	1.71718	-0.11916	-0.03163	1.54962	0.26708	-0.10982	1.48130	0.08152	-0.06337	1.51820	0.69631	-0.03758	1.55206	0.40377	-0.02784	1.55265	0.54116	0.09995	1.48889	-0.07112	0.03613	1.51160	0.68973	0.13455	1.32627	-0.05313	0.06108	1.51929	0.08476	0.06145	1.81288	0.01883	0.07197	1.82606	-0.08371	0.07502	1.17681	0.11015	-0.10286	1.53009	-0.06953	0.02118	1.44652	0.40975	-0.11404	1.33606	-0.05167	-0.06583	1.71786	-0.01589 
5	0.033	-0.05278	1.57694	0.08777	-0.11439	1.37038	0.01697	-0.04756	1.71717	-0.11915	-0.03162	1.54965	0.26710	-0.10984	1.48129	0.08154	-0.06334	1.51827	0.69631	-0.03758	1.55209	0.40377	-0.02783	1.55269	0.54113	0.09992	1.48889	-0.07111	0.03615	1.51168	0.68973	0.13452	1.32627	-0.05313	0.06105	1.51929	0.08476	0.06139	1.81289	0.01887	0.07189	1.82610	-0.08370	0.07501	1.17681	0.11015	-0.10288	1.53008	-0.06951	0.02117	1.44655	0.40976	-0.11406	1.33605	-0.05165	-0.06588	1.71783	-0.01589 
6	0.042	-0.05280	1.57695	0.08778	-0.11440	1.37037	0.01698	-0.04759	1.71716	-0.11914	-0.03161	1.54967	0.26713	-0.10986	1.48129	0.08155	-0.06332	1.51835	0.69632	-0.03758	1.55211	0.40376	-0.02782	1.55274	0.54113	0.09989	1.48888	-0.07110	0.03618	1.51176	0.68973	0.13449	1.32626	-0.05312	0.06102	1.51929	0.08476	0.06134	1.81290	0.01892	0.07183	1.82614	-0.08367	0.07500	1.17681	0.11015	-0.10290	1.53007	-0.06951	0.02116	1.44658	0.40976	-0.11407	1.33604	-0.05163	-0.06592	1.71781	-0.01588 
7	0.050	-0.05282	1.57695	0.08778	-0.11441	1.37037	0.01698	-0.04762	1.71715	-0.11912	-0.03161	1.54968	0.26715	-0.10988	1.48128	0.08155	-0.06330	1.51841	0.69632	-0.03758	1.55214	0.40376	-0.02780	1.55279	0.54113	0.09987	1.48888	-0.07110	0.03620	1.51183	0.68972	0.13447	1.32626	-0.05312	0.06100	1.51928	0.08475	0.06128	1.81290	0.01896	0.07177	1.82617	-0.08364	0.07498	1.17681	0.11016	-0.10292	1.53006	-0.06950	0.02116	1.44660	0.40977	-0.11409	1.33604	-0.05163	-0.06596	1.71778	-0.01588 
8	0.058	-0.05284	1.57695	0.08778	-0.11442	1.37037	0.01698	-0.04764	1.71715	-0.11911	-0.03162	1.54970	0.26715	-0.10990	1.48127	0.08155	-0.06328	1.51847	0.69632	-0.03758	1.55216	0.40375	-0.02779	1.55282	0.54112	0.09984	1.48888	-0.07109	0.03623	1.51189	0.68972	0.13445	1.32626	-0.05311	0.06097	1.51928	0.08475	0.06123	1.81290	0.01899	0.07172	1.82619	-0.08361	0.07497	1.17681	0.11016	-0.10294	1.53005	-0.06951	0.02115	1.44662	0.40977	-0.11409	1.33604	-0.05163	-0.06600	1.71776	-0.01587 
9	0.067	-0.05287	1.57695	0.08777	-0.11443	1.37036	0.01698	-0.04765	1.71715	-0.11911	-0.03165	1.54971	0.26712	-0.10992	1.48127	0.08155	-0.06326	1.51852	0.69631	-0.03758	1.55217	0.40374	-0.02779	1.55284	0.54109	0.09982	1.48887	-0.07109	0.03625	1.51194	0.68972	0.13443	1.32625	-0.05311	0.06094	1.51927	0.08475	0.06118	1.81290	0.01902	0.07169	1.82620	-0.08357	0.07495	1.17680	0.11016	-0.10296	1.53005	-0.06951	0.02115	1.44664	0.40977	-0.11410	1.33603	-0.05163	-0.06603	1.71775	-0.01587 
10	0.075	-0.05289	1.57694	0.08777	-0.11444	1.37036	0.01697	-0.04766	1.71715	-0.11910	-0.03169	1.54972	0.26708	-0.10994	1.48126	0.08155	-0.06325	1.51856	0.69631	-0.03759	1.55218	0.40373	-0.02779	1.55284	0.54107	0.09980	1.48887	-0.07109	0.03627	1.51199	0.68971	0.13441	1.32625	-0.05310	0.06092	1.51927	0.08474	0.06113	1.81289	0.01906	0.07167	1.82621	-0.08352	0.07494	1.17680	0.11016	-0.10298	1.53004	-0.06952	0.02114	1.44665	0.40976	-0.11410	1.33603	-0.05163	-0.06606	1.71773	-0.01587 
11	0.083	-0.05291	1.57693	0.08776	-0.11445	1.37035	0.01696	-0.04766	1.71715	-0.11910	-0.03172	1.54972	0.26706	-0.10995	1.48125	0.08154	-0.06323	1.51858	0.69630	-0.03760	1.55218	0.40372	-0.02779	1.55286	0.54107	0.09978	1.48886	-0.07109	0.03629	1.51202	0.68970	0.13439	1.32624	-0.05310	0.06090	1.51926	0.08474	0.06110	1.81287	0.01909	0.07166	1.82622	-0.08348	0.07492	1.17680	0.11016	-0.10299	1.53004	-0.06953	0.02113	1.44665	0.40976	-0.11411	1.33602	-0.05164	-0.06608	1.71772	-0.01587 
12	0.092	-0.05292	1.57693	0.08776	-0.11446	1.37034	0.01695	-0.04766	1.71715	-0.11910	-0.03174	1.54973	0.26703	-0.10996	1.48125	0.08153	-0.06322	1.51860	0.69630	-0.03760	1.55218	0.40371	-0.02778	1.55287	0.54106	0.09977	1.48886	-0.07108	0.03630	1.51204	0.68969	0.13438	1.32623	-0.05310	0.06088	1.51926	0.08473	0.06107	1.81285	0.01912	0.07164	1.82622	-0.08344	0.07491	1.17680	0.11016	-0.10300	1.53003	-0.06954	0.02112	1.44664	0.40975	-0.11412	1.33601	-0.05165	-0.06609	1.71770	-0.01587 
13	0.100	-0.05293	1.57692	0.08775	-0.11446	1.37034	0.01694	-0.04766	1.71716	-0.11910	-0.03176	1.54974	0.26701	-0.10997	1.48124	0.08152	-0.06322	1.51860	0.69629	-0.03761	1.55217	0.40370	-0.02778	1.55288	0.54106	0.09976	1.48885	-0.07108	0.03630	1.51205	0.68968	0.13437	1.32623	-0.05310	0.06087	1.51925	0.08472	0.06105	1.81283	0.01915	0.07164	1.82622	-0.08340	0.07489	1.17680	0.11016	-0.10301	1.53003	-0.06955	0.02110	1.44663	0.40974	-0.11412	1.33601	-0.05166	-0.06610	1.71770	-0.01587 
14	0.108	-0.05294	1.57691	0.08775	-0.11447	1.37033	0.01692	-0.04765	1.71717	-0.11911	-0.03178	1.54975	0.26699	-0.10998	1.48124	0.08151	-0.06322	1.51860	0.69628	-0.03762	1.55215	0.40369	-0.02778	1.55289	0.54106	0.09975	1.48885	-0.07109	0.03630	1.51204	0.68967	0.13436	1.32622	-0.05310	0.06086	1.51925	0.08471	0.06104	1.81282	0.01918	0.07165	1.82621	-0.08337	0.07488	1.17680	0.11015	-0.10301	1.53003	-0.06956	0.02109	1.44662	0.40973	-0.11412	1.33601	-0.05167	-0.06610	1.71769	-0.01588 
15	0.117	-0.05294	1.57690	0.08774	-0.11447	1.37033	0.01690	-0.04764	1.71718	-0.11912	-0.03180	1.54974	0.26696	-0.10998	1.48123	0.08149	-0.06323	1.51858	0.69627	-0.03764	1.55213	0.40368	-0.02779	1.55290	0.54108	0.09975	1.48884	-0.07109	0.03629	1.51202	0.68966	0.13435	1.32622	-0.05310	0.06085	1.51924	0.08470	0.06103	1.81281	0.01922	0.07167	1.82620	-0.08333	0.07486	1.17680	0.11014	-0.10301	1.53002	-0.06958	0.02107	1.44660	0.40972	-0.11412	1.33600	-0.05168	-0.06610	1.71769	-0.01589 
16	0.125	-0.05294	1.57689	0.08773	-0.11447	1.37033	0.01689	-0.04762	1.71719	-0.11913	-0.03182	1.54972	0.26693	-0.10998	1.48122	0.08148	-0.06325	1.51855	0.69626	-0.03765	1.55210	0.40367	-0.02780	1.55289	0.54109	0.09975	1.48884	-0.07109	0.03628	1.51199	0.68965	0.13435	1.32621	-0.05310	0.06085	1.51924	0.08469	0.06104	1.81280	0.01925	0.07171	1.82619	-0.08328	0.07485	1.17679	0.11013	-0.10301	1.53002	-0.06959	0.02105	1.44658	0.40971	-0.11411	1.33599	-0.05169	-0.06609	1.71768	-0.01589 
17	0.133	-0.05294	1.57688	0.08772	-0.11447	1.37032	0.01687	-0.04760	1.71721	-0.11915	-0.03184	1.54971	0.26690	-0.10998	1.48122	0.08147	-0.06328	1.51851	0.69625	-0.03767	1.55206	0.40365	-0.02781	1.55286	0.54109	0.09975	1.48883	-0.07110	0.03625	1.51196	0.68964	0.13434	1.32621	-0.05311	0.06085	1.51923	0.08469	0.06105	1.81278	0.01927	0.07175	1.82618	-0.08324	0.07484	1.17679	0.11012	-0.10301	1.53002	-0.06960	0.02104	1.44656	0.40971	-0.11410	1.33599	-0.05169	-0.06608	1.71768	-0.01590 
18	0.142	-0.05293	1.57687	0.08771	-0.11447	1.37032	0.01686	-0.04757	1.71722	-0.11917	-0.03186	1.54970	0.26687	-0.10997	1.48121	0.08146	-0.06332	1.51847	0.69624	-0.03770	1.55202	0.40363	-0.02784	1.55283	0.54109	0.09975	1.48882	-0.07111	0.03622	1.51192	0.68963	0.13434	1.32620	-0.05312	0.06085	1.51923	0.08468	0.06106	1.81276	0.01929	0.07181	1.82617	-0.08319	0.07483	1.17679	0.11011	-0.10300	1.53002	-0.06962	0.02103	1.44653	0.40970	-0.11409	1.33599	-0.05170	-0.06607	1.71769	-0.01591 
